{"scene":0,"asset":{"generator":"ImageToStl.com","version":"2.0"},"scenes":[{"name":"Scene","nodes":[0]}],"nodes":[{"name":"Node0","children":[1,2]},{"name":"Node1","mesh":0},{"name":"Node2","mesh":1}],"materials":[{"name":"x1","pbrMetallicRoughness":{"baseColorFactor":[0.85,0.85,0.85,1.0],"metallicFactor":0.05,"roughnessFactor":0.5},"doubleSided":true}],"meshes":[{"name":"Mesh0","primitives":[{"indices":2,"material":0,"attributes":{"POSITION":0,"NORMAL":1}}]},{"name":"Mesh0","primitives":[{"indices":5,"material":0,"attributes":{"POSITION":3,"NORMAL":4}}]}],"accessors":[{"bufferView":0,"componentType":5126,"count":23914,"type":"VEC3","min":[-1.1361086,-0.68616414,-0.19685],"max":[1.181103,1.0911134,0.19685]},{"bufferView":1,"componentType":5126,"count":23914,"type":"VEC3"},{"bufferView":2,"componentType":5123,"count":24186,"type":"SCALAR"},{"bufferView":3,"componentType":5126,"count":1704,"type":"VEC3","min":[-1.1361086,-0.68616414,-0.19685],"max":[1.181103,1.0911134,-0.19685]},{"bufferView":4,"componentType":5126,"count":1704,"type":"VEC3"},{"bufferView":5,"componentType":5123,"count":8442,"type":"SCALAR"}],"bufferViews":[{"target":34962,"buffer":0,"byteLength":286968,"byteOffset":0},{"target":34962,"buffer":0,"byteLength":286968,"byteOffset":286968},{"target":34963,"buffer":0,"byteLength":48372,"byteOffset":573936},{"target":34962,"buffer":0,"byteLength":20448,"byteOffset":622308},{"target":34962,"buffer":0,"byteLength":20448,"byteOffset":642756},{"target":34963,"buffer":0,"byteLength":16884,"byteOffset":663204}],"buffers":[{"byteLength":680088,"uri":"data:application/octet-stream;base64,"}]}